<?xml version="1.0" encoding="UTF-8"?>
<svg xmlns="http://www.w3.org/2000/svg" xmlns:xlink="http://www.w3.org/1999/xlink" version="1.1" viewBox="0 0 551.2 130.5">
  <defs>
    <style>
      .cls-1 {
        fill: url(#linear-gradient-4);
      }

      .cls-2 {
        fill: url(#linear-gradient-3);
      }

      .cls-3 {
        fill: url(#linear-gradient-2);
      }

      .cls-4 {
        fill: #fff;
      }

      .cls-5 {
        fill: url(#linear-gradient);
        fill-rule: evenodd;
      }
    </style>
    <linearGradient id="linear-gradient" x1="18.8" y1="26.5" x2="63.3" y2="26.5" gradientTransform="translate(0 132) scale(1 -1)" gradientUnits="userSpaceOnUse">
      <stop offset="0" stop-color="#ff354d"/>
      <stop offset="1" stop-color="#b113c0"/>
    </linearGradient>
    <linearGradient id="linear-gradient-2" x1="37.4" y1="67.7" x2="75.8" y2="67.7" gradientTransform="translate(0 132) scale(1 -1)" gradientUnits="userSpaceOnUse">
      <stop offset="0" stop-color="#ff354d"/>
      <stop offset="1" stop-color="#b113c0"/>
    </linearGradient>
    <linearGradient id="linear-gradient-3" x1="0" y1="75.7" x2="84.5" y2="75.7" gradientTransform="translate(0 132) scale(1 -1)" gradientUnits="userSpaceOnUse">
      <stop offset="0" stop-color="#ff354d"/>
      <stop offset="1" stop-color="#b113c0"/>
    </linearGradient>
    <linearGradient id="linear-gradient-4" x1="69.8" y1="59.4" x2="103.2" y2="59.4" gradientTransform="translate(0 132) scale(1 -1)" gradientUnits="userSpaceOnUse">
      <stop offset="0" stop-color="#ff354d"/>
      <stop offset="1" stop-color="#b113c0"/>
    </linearGradient>
  </defs>
  <!-- Generator: Adobe Illustrator 28.6.0, SVG Export Plug-In . SVG Version: 1.2.0 Build 709)  -->
  <g>
    <g id="Videomate.io">
      <g id="Letters">
        <path class="cls-4" d="M420.9,51.5c2.8,1.5,5,3.7,6.6,6.7,1.6,3,2.4,6.6,2.4,10.8v27h-7.5v-25.9c0-4.6-1.1-8.1-3.4-10.5-2.3-2.4-5.3-3.6-9.2-3.6s-7.1,1.3-9.5,3.8c-2.3,2.5-3.5,6.2-3.5,11v25.3h-7.5v-25.9c0-4.6-1.1-8.1-3.4-10.5-2.3-2.4-5.3-3.6-9.2-3.6s-7.1,1.3-9.5,3.8c-2.3,2.5-3.5,6.2-3.5,11v25.3h-7.6v-45.9h7.6v6.6c1.5-2.4,3.5-4.2,6.1-5.5,2.5-1.3,5.3-1.9,8.4-1.9s7.2.9,10.2,2.6c3,1.7,5.2,4.3,6.6,7.6,1.3-3.2,3.4-5.7,6.4-7.5,3-1.8,6.2-2.7,9.9-2.7s6.8.7,9.5,2.2h0Z"/>
        <path class="cls-4" d="M506.8,56.4v-6.3h-12v-11.5h-7.6v11.5h-15.6v8.4c-1.5-2.6-3.6-4.8-6.6-6.5-3-1.7-6.5-2.6-10.5-2.6s-7.8,1-11.1,2.9c-3.3,2-5.9,4.7-7.8,8.2-1.9,3.5-2.9,7.7-2.9,12.4s1,8.8,2.9,12.4c1.9,3.6,4.5,6.4,7.8,8.4,3.3,2,7,3,11,3s7.4-.9,10.4-2.6c3-1.8,5.2-4,6.7-6.7v8.5h7.7v-39.6h7.9v27c0,4.5,1.1,7.7,3.2,9.6,2.1,2,5.3,2.9,9.5,2.9h6.9v-6.4h-5.6c-2.3,0-4-.5-5-1.4-.9-.9-1.4-2.5-1.4-4.7v-27h12ZM469.6,82.1c-1.4,2.6-3.3,4.6-5.7,5.9-2.4,1.4-5,2.1-7.8,2.1s-5.4-.7-7.8-2.1c-2.3-1.3-4.2-3.3-5.6-5.9-1.4-2.6-2.1-5.7-2.1-9.2s.7-6.5,2.1-9c1.4-2.6,3.3-4.5,5.6-5.9s4.9-2,7.8-2,5.5.7,7.8,2c2.4,1.4,4.3,3.3,5.7,5.9,1.4,2.6,2.1,5.6,2.1,9s-.7,6.5-2.1,9.1h0Z"/>
        <path class="cls-4" d="M550.9,75.9h-36.7c.3,4.5,1.8,8.1,4.6,10.6,2.8,2.5,6.2,3.8,10.2,3.8s6-.8,8.2-2.3c2.2-1.5,3.8-3.6,4.7-6.2h8.2c-1.2,4.4-3.7,8-7.4,10.8s-8.3,4.1-13.7,4.1-8.2-1-11.7-2.9-6.1-4.7-8.1-8.3c-2-3.6-2.9-7.8-2.9-12.5s1-8.9,2.9-12.5,4.6-6.3,8-8.2c3.4-1.9,7.4-2.9,11.8-2.9s8.2,1,11.5,2.8c3.3,1.9,5.9,4.5,7.7,7.8s2.7,7.1,2.7,11.3,0,3-.2,4.6h0ZM541.4,62.2c-1.3-2.1-3-3.7-5.2-4.8-2.2-1.1-4.7-1.6-7.3-1.6-3.8,0-7.1,1.2-9.8,3.7-2.7,2.5-4.3,5.9-4.7,10.2h29c0-2.9-.6-5.4-1.9-7.5Z"/>
        <path class="cls-4" d="M175,36.7l-21.4,58.4h-14.2l-21.4-58.4h12.6l16.1,46.4,16-46.4h12.5Z"/>
        <path class="cls-4" d="M181.1,41.3c-1.4-1.3-2.1-2.9-2.1-4.9s.7-3.6,2.1-4.9c1.4-1.3,3.1-2,5.1-2s3.8.7,5.1,2c1.4,1.3,2.1,2.9,2.1,4.9s-.7,3.6-2.1,4.9c-1.4,1.3-3.1,2-5.1,2s-3.8-.7-5.1-2ZM192,48.8v46.4h-11.7v-46.4h11.7Z"/>
        <path class="cls-4" d="M201.7,59.3c1.9-3.6,4.4-6.4,7.7-8.4,3.2-2,6.8-2.9,10.8-2.9s5.9.7,8.6,2c2.7,1.3,4.9,3.1,6.5,5.2v-22h11.9v61.9h-11.9v-6.9c-1.5,2.3-3.5,4.1-6.1,5.5-2.6,1.4-5.7,2.1-9.1,2.1s-7.5-1-10.7-3c-3.2-2-5.8-4.8-7.7-8.5-1.9-3.7-2.8-7.9-2.8-12.6s.9-8.8,2.8-12.5ZM233.7,64.6c-1.1-2-2.6-3.6-4.5-4.7-1.9-1.1-3.9-1.6-6.1-1.6s-4.2.5-6,1.6c-1.8,1.1-3.3,2.6-4.5,4.6-1.1,2-1.7,4.5-1.7,7.2s.6,5.2,1.7,7.3c1.1,2.1,2.6,3.7,4.5,4.8,1.9,1.1,3.9,1.7,6,1.7s4.2-.5,6.1-1.6c1.9-1.1,3.4-2.6,4.5-4.7,1.1-2,1.7-4.5,1.7-7.3s-.6-5.3-1.7-7.3Z"/>
        <path class="cls-4" d="M299.8,75.5h-33.9c.3,3.3,1.5,6,3.5,7.9,2.1,1.9,4.6,2.8,7.6,2.8,4.4,0,7.4-1.9,9.3-5.6h12.6c-1.3,4.5-3.9,8.1-7.7,11-3.8,2.9-8.5,4.3-14,4.3s-8.5-1-12-3c-3.5-2-6.3-4.8-8.3-8.4-2-3.6-3-7.8-3-12.6s1-9,2.9-12.6c2-3.6,4.7-6.4,8.2-8.4,3.5-2,7.6-2.9,12.1-2.9s8.4.9,11.8,2.8c3.5,1.9,6.2,4.6,8.1,8.1,1.9,3.5,2.9,7.5,2.9,12s-.1,3.2-.3,4.5ZM288,67.6c0-3-1.1-5.4-3.3-7.2-2.1-1.8-4.7-2.7-7.8-2.7s-5.3.9-7.3,2.6c-2,1.8-3.2,4.2-3.6,7.3h22Z"/>
        <path class="cls-4" d="M315.5,92.9c-3.6-2-6.4-4.8-8.4-8.4-2-3.6-3.1-7.8-3.1-12.6s1-8.9,3.1-12.6c2.1-3.6,5-6.4,8.6-8.4,3.6-2,7.7-3,12.1-3s8.5,1,12.1,3c3.6,2,6.5,4.8,8.6,8.4,2.1,3.6,3.1,7.8,3.1,12.6s-1.1,8.9-3.2,12.6c-2.1,3.6-5.1,6.4-8.7,8.4-3.7,2-7.7,3-12.3,3s-8.5-1-12.1-3ZM333.5,84.1c1.9-1,3.4-2.6,4.5-4.6,1.1-2.1,1.7-4.6,1.7-7.5,0-4.4-1.2-7.8-3.5-10.2-2.3-2.4-5.1-3.6-8.5-3.6s-6.2,1.2-8.4,3.6c-2.3,2.4-3.4,5.8-3.4,10.2s1.1,7.8,3.3,10.2c2.2,2.4,5,3.6,8.3,3.6s4.1-.5,6-1.5Z"/>
      </g>
      <g id="Icon">
        <path class="cls-5" d="M63.3,94.7l-1.9,20v.7c-3.2.6-6.4.9-9.8.9-12.5,0-23.9-4.4-32.8-11.7l.7-.3,22.4-9.3c3.3,1,6.7,1.6,10.3,1.6s7.6-.7,11.1-1.9Z"/>
        <path class="cls-3" d="M75.7,65c0,0,0,.2,0,.2-.3,1.3-1.1,2.5-2.4,3.3l-.9.5-26.3,15.9s0,0,0,0c-.6.4-1.2.6-1.9.7-1.4.2-2.9-.2-4-1-2.4-1.6-2.7-4.5-2.7-4.5v-32.7h0c.2-1.9,1.6-3.5,3.3-4.2,1.4-.6,3.1-.6,4.7.3l3.8,2.1,3.1,1.7,20.8,11.7c1.4.8,2.3,2.1,2.6,3.4.2.8.2,1.5,0,2.3h0Z"/>
        <path class="cls-2" d="M84.5,26l-16.8,8.1c-1.2-.6-2.5-1.2-3.8-1.7-3.6-1.3-7.5-2-11.6-2s-8,.7-11.6,2c-13,4.8-22.3,17.3-22.3,31.9h0c0,.7,0,1.3,0,2,0,.3,0,.5,0,.8,0,.6.1,1.1.2,1.7,0,.3,0,.5.1.8,1,6.8,4.1,13,8.5,17.9,1.1,1.2,2.2,2.3,3.5,3.3l-18.2,7.6C4.6,89.4,0,77.9,0,65.3V14.3h51.6c.8,0,1.6,0,2.3,0,.4,0,.8,0,1.2,0,.3,0,.7,0,1,0,.9,0,1.8.2,2.7.3,3.8.5,7.6,1.5,11.2,2.9,5.2,2,10.1,4.8,14.5,8.4h0Z"/>
        <path class="cls-1" d="M103.2,65.3c0,.5,0,1,0,1.6,0,.3,0,.5,0,.8,0,.3,0,.5,0,.8,0,.7,0,1.4-.2,2,0,.6-.1,1.2-.2,1.8,0,.3,0,.6-.1,1h0c0,.3,0,.6-.1.9,0,.3-.1.6-.2.9-3.4,17.7-15.9,32.1-32.4,38.2h0c0-.1,2-20.8,2-20.8h0c7.2-5.1,12.4-13,13.9-22.1.3-1.9.5-3.8.5-5.7s0-1,0-1.6c-.2-4.5-1.3-8.7-3-12.5-.3-.6-.6-1.2-.9-1.8-.1-.2-.2-.5-.4-.7-.1-.2-.3-.5-.4-.7-.1-.2-.3-.5-.4-.7-.2-.2-.3-.5-.5-.7-.3-.5-.6-.9-1-1.4-1.3-1.7-2.7-3.3-4.2-4.7l15.4-7.4h0c5.6,6.5,9.6,14.6,11.3,23.4,0,.3.1.6.2.9,0,.3.1.6.2,1s0,.6.1,1,0,.6.1,1c0,.4,0,.8.1,1.2,0,.8.1,1.6.2,2.4,0,.8,0,1.6,0,2.4h0Z"/>
      </g>
    </g>
  </g>
</svg>